<?xml version="1.0" encoding="utf-8"?>
<!-- Generator: Adobe Illustrator 25.2.1, SVG Export Plug-In . SVG Version: 6.00 Build 0)  -->
<svg version="1.1" id="Layer_1" xmlns="http://www.w3.org/2000/svg" xmlns:xlink="http://www.w3.org/1999/xlink" x="0px" y="0px"
	 viewBox="0 0 22.9 30.7" style="enable-background:new 0 0 22.9 30.7;" xml:space="preserve">
<style type="text/css">
	.st0{fill:#0065FC;}
</style>
<path class="st0" d="M18.1,26.5c-0.5-0.6-0.9-1.4-1.4-2.2c-0.4-0.9-0.8-1.8-1.2-2.8c-0.3-0.8-0.5-1.5-0.8-2.1
	c-0.3-0.6-0.5-1.2-0.6-1.6c1.4-0.9,2.5-2,3.2-3.4c0.8-1.4,1.2-2.8,1.2-4.5c0-1.4-0.3-2.6-0.8-3.6c-0.5-1-1.2-1.8-2-2.4
	c-0.8-0.6-1.7-1.1-2.6-1.4c-1-0.3-1.9-0.4-2.8-0.4c-0.3,0-0.5,0-0.7,0c-0.2,0-0.5,0-0.7,0c0-0.6-0.3-0.8-0.7-0.7
	C8,1.5,7.7,1.6,7.3,1.8C7,2,6.8,2.2,6.5,2.5C5.8,2.7,5.2,2.9,4.7,3.1c-0.5,0.2-1,0.5-1.5,0.8C2.9,4.1,2.6,4.4,2.3,4.7
	C2,5,1.7,5.4,1.5,5.8C1.3,6.2,1.1,6.6,1,7.1C0.9,7.5,0.9,8,1,8.4c0.1,0.4,0.3,0.7,0.4,1c0.1,0.3,0.3,0.5,0.5,0.8
	c0.2,0.2,0.5,0.4,0.8,0.4c0.2-1,0.5-1.9,1.1-2.6s1.1-1.4,1.8-1.8c0,0.7,0,1.5-0.1,2.4c0,0.9-0.1,1.8-0.1,2.8c0,1-0.1,2-0.1,3
	c0,1-0.1,2-0.1,3H4.6c-0.4,0-0.8,0-1.1-0.1c0,0.1-0.1,0.3-0.1,0.6c0,0.2,0,0.4,0.1,0.7c0,0.3,0.1,0.6,0.3,1c0.2,0,0.4,0,0.6,0.1
	c0.2,0,0.5,0,0.7,0.1c0,0.2,0,0.3,0,0.5c0,0.2,0,0.3,0,0.5c-0.1,1.5-0.1,2.7-0.1,3.7s0,1.7,0,2.4c0,0.6,0.1,1.1,0.2,1.5
	c0.1,0.4,0.2,0.7,0.3,1.1c0.3,0,0.7,0,1.1-0.1c0.3-0.1,0.7-0.2,1.1-0.4c0.4-0.2,0.9-0.4,1.4-0.8c-0.1-0.3-0.2-0.5-0.2-0.8
	c0-0.3-0.1-0.6-0.1-0.9c0-0.3-0.1-0.7-0.1-1.2c0-0.5,0-1-0.1-1.7c-0.1-1.1-0.1-2.3-0.1-3.8c1.1-0.1,2.1-0.3,3-0.6
	c0.2,0.4,0.4,0.9,0.6,1.4c0.2,0.6,0.5,1.2,0.7,1.9c0.2,0.8,0.5,1.5,0.8,2.4c0.3,0.8,0.6,1.6,1,2.3c0.4,0.7,0.8,1.3,1.3,1.9
	c0.5,0.5,1.1,0.8,1.8,1c0.5,0.1,1,0.1,1.4,0c0.4,0,0.8-0.2,1.2-0.4c0.4-0.2,0.8-0.5,1.1-1c-0.5-0.1-1-0.3-1.5-0.7
	C19.1,27.6,18.6,27.1,18.1,26.5z M12.6,15.6c-0.7,0.5-1.4,0.8-2.1,1.1C9.7,16.9,9,17,8.4,17.1c0-0.9,0-1.8,0-2.7c0-0.9,0-1.8,0-2.7
	c0-0.8,0-1.6,0.1-2.4c0-0.7,0-1.3,0-1.9c0-0.9,0-1.7,0.1-2.4c0.1,0,0.3,0,0.4,0h0.4c0.6,0,1.3,0.1,1.9,0.3c0.7,0.2,1.3,0.5,1.8,0.9
	c0.5,0.4,1,1,1.3,1.7c0.4,0.7,0.5,1.5,0.5,2.5c0,1.3-0.2,2.3-0.7,3.2C13.8,14.5,13.3,15.1,12.6,15.6z"/>
</svg>
